<svg width="25" height="25" viewBox="0 0 25 25" fill="none" xmlns="http://www.w3.org/2000/svg">
<path d="M12.1428 6C13.8667 6 15.52 6.68482 16.739 7.90381C17.958 9.12279 18.6428 10.7761 18.6428 12.5C18.6428 14.2239 17.958 15.8772 16.739 17.0962C15.52 18.3152 13.8667 19 12.1428 19C10.4189 19 8.76561 18.3152 7.54663 17.0962C6.32764 15.8772 5.64282 14.2239 5.64282 12.5C5.64282 10.7761 6.32764 9.12279 7.54663 7.90381C8.76561 6.68482 10.4189 6 12.1428 6ZM12.1428 20.5C14.2646 20.5 16.2994 19.6571 17.7997 18.1569C19.3 16.6566 20.1428 14.6217 20.1428 12.5C20.1428 10.3783 19.3 8.34344 17.7997 6.84315C16.2994 5.34285 14.2646 4.5 12.1428 4.5C10.0211 4.5 7.98626 5.34285 6.48597 6.84315C4.98568 8.34344 4.14282 10.3783 4.14282 12.5C4.14282 14.6217 4.98568 16.6566 6.48597 18.1569C7.98626 19.6571 10.0211 20.5 12.1428 20.5ZM15.6741 11.0312C15.9678 10.7375 15.9678 10.2625 15.6741 9.97188C15.3803 9.68125 14.9053 9.67813 14.6147 9.97188L11.1459 13.4406L9.6772 11.9719C9.38345 11.6781 8.90845 11.6781 8.61782 11.9719C8.3272 12.2656 8.32407 12.7406 8.61782 13.0312L10.6178 15.0312C10.9116 15.325 11.3866 15.325 11.6772 15.0312L15.6741 11.0312Z" fill="#24A148"/>
</svg>
