<svg width="24" height="24" viewBox="0 0 24 24" fill="none" xmlns="http://www.w3.org/2000/svg">
<path d="M6.5 4.75C6.5 4.33437 6.16562 4 5.75 4C5.33437 4 5 4.33437 5 4.75V6V14.9531V16.5V19.25C5 19.6656 5.33437 20 5.75 20C6.16562 20 6.5 19.6656 6.5 19.25V16.125L9.00938 15.4969C10.2937 15.175 11.6531 15.325 12.8375 15.9156C14.2188 16.6062 15.8219 16.6906 17.2656 16.1469L18.35 15.7406C18.7406 15.5938 19 15.2219 19 14.8031V6.0625C19 5.34375 18.2438 4.875 17.6 5.19687L17.3 5.34687C15.8531 6.07188 14.15 6.07188 12.7031 5.34687C11.6062 4.79687 10.3469 4.65938 9.15625 4.95625L6.5 5.625V4.75ZM6.5 7.17188L9.51875 6.41563C10.3625 6.20625 11.2531 6.30312 12.0312 6.69062C13.7469 7.54688 15.7406 7.61875 17.5 6.90313V14.4594L16.7375 14.7437C15.6844 15.1375 14.5125 15.0781 13.5063 14.575C12 13.8219 10.2781 13.6344 8.64375 14.0406L6.5 14.5781V7.17188Z" fill="#353535"/>
</svg>
