<svg width="16" height="17" viewBox="0 0 16 17" fill="none" xmlns="http://www.w3.org/2000/svg">
<path d="M8 6.50335C8.70725 6.50335 9.38552 6.78431 9.88562 7.2844C10.3857 7.7845 10.6667 8.46278 10.6667 9.17002C10.6667 9.87726 10.3857 10.5555 9.88562 11.0556C9.38552 11.5557 8.70725 11.8367 8 11.8367C7.29276 11.8367 6.61448 11.5557 6.11438 11.0556C5.61429 10.5555 5.33334 9.87726 5.33334 9.17002C5.33334 8.46278 5.61429 7.7845 6.11438 7.2844C6.61448 6.78431 7.29276 6.50335 8 6.50335ZM8 4.16669C11.0753 4.16669 13.7307 6.26669 14.4673 9.20935C14.4996 9.33798 14.4795 9.47416 14.4113 9.58794C14.3432 9.70171 14.2326 9.78375 14.104 9.81602C13.9754 9.84829 13.8392 9.82814 13.7254 9.76C13.6116 9.69186 13.5296 9.58132 13.4973 9.45269C13.1887 8.22833 12.4801 7.14206 11.484 6.36611C10.4879 5.59016 9.26129 5.16894 7.99863 5.16925C6.73597 5.16955 5.50954 5.59136 4.51382 6.3678C3.5181 7.14423 2.81007 8.23085 2.502 9.45535C2.48611 9.51909 2.45782 9.57907 2.41875 9.63187C2.37968 9.68467 2.33059 9.72926 2.27429 9.7631C2.21799 9.79693 2.15557 9.81934 2.09061 9.82905C2.02564 9.83876 1.9594 9.83558 1.89567 9.81969C1.83193 9.8038 1.77195 9.77551 1.71915 9.73644C1.66635 9.69737 1.62176 9.64828 1.58793 9.59198C1.5541 9.53567 1.53168 9.47326 1.52197 9.40829C1.51226 9.34333 1.51545 9.27709 1.53134 9.21335C1.89256 7.77138 2.72537 6.4915 3.89741 5.57711C5.06944 4.66272 6.51347 4.16628 8 4.16669Z" fill="#1A1A1A"/>
</svg>
