<svg width="24" height="24" viewBox="0 0 24 24" fill="none" xmlns="http://www.w3.org/2000/svg">
<path d="M19.4957 9.20674C19.5957 9.47861 19.5113 9.78174 19.2957 9.97549L17.9426 11.2067C17.977 11.4661 17.9957 11.7317 17.9957 12.0005C17.9957 12.2692 17.977 12.5349 17.9426 12.7942L19.2957 14.0255C19.5113 14.2192 19.5957 14.5224 19.4957 14.7942C19.3582 15.1661 19.1926 15.5224 19.002 15.8661L18.8551 16.1192C18.6488 16.463 18.4176 16.788 18.1645 17.0942C17.9801 17.3192 17.6738 17.3942 17.3988 17.3067L15.6582 16.7536C15.2395 17.0755 14.777 17.3442 14.2832 17.5474L13.8926 19.3317C13.8301 19.6161 13.6113 19.8411 13.3238 19.888C12.8926 19.9599 12.4488 19.9974 11.9957 19.9974C11.5426 19.9974 11.0988 19.9599 10.6676 19.888C10.3801 19.8411 10.1613 19.6161 10.0988 19.3317L9.70821 17.5474C9.21446 17.3442 8.75196 17.0755 8.33321 16.7536L6.59571 17.3099C6.32071 17.3974 6.01446 17.3192 5.83009 17.0974C5.57696 16.7911 5.34571 16.4661 5.13946 16.1224L4.99259 15.8692C4.80196 15.5255 4.63634 15.1692 4.49884 14.7974C4.39884 14.5255 4.48321 14.2224 4.69884 14.0286L6.05196 12.7974C6.01759 12.5349 5.99884 12.2692 5.99884 12.0005C5.99884 11.7317 6.01759 11.4661 6.05196 11.2067L4.69884 9.97549C4.48321 9.78174 4.39884 9.47861 4.49884 9.20674C4.63634 8.83486 4.80196 8.47861 4.99259 8.13486L5.13946 7.88174C5.34571 7.53799 5.57696 7.21299 5.83009 6.90674C6.01446 6.68174 6.32071 6.60674 6.59571 6.69424L8.33634 7.24736C8.75509 6.92549 9.21759 6.65674 9.71134 6.45361L10.102 4.66924C10.1645 4.38486 10.3832 4.15986 10.6707 4.11299C11.102 4.03799 11.5457 4.00049 11.9988 4.00049C12.452 4.00049 12.8957 4.03799 13.327 4.10986C13.6145 4.15674 13.8332 4.38174 13.8957 4.66611L14.2863 6.45049C14.7801 6.65361 15.2426 6.92236 15.6613 7.24424L17.402 6.69111C17.677 6.60361 17.9832 6.68174 18.1676 6.90361C18.4207 7.20986 18.652 7.53486 18.8582 7.87861L19.0051 8.13174C19.1957 8.47549 19.3613 8.83174 19.4988 9.20361L19.4957 9.20674ZM11.9988 14.5005C12.6619 14.5005 13.2978 14.2371 13.7666 13.7683C14.2354 13.2994 14.4988 12.6635 14.4988 12.0005C14.4988 11.3374 14.2354 10.7016 13.7666 10.2327C13.2978 9.76388 12.6619 9.50049 11.9988 9.50049C11.3358 9.50049 10.6999 9.76388 10.2311 10.2327C9.76223 10.7016 9.49884 11.3374 9.49884 12.0005C9.49884 12.6635 9.76223 13.2994 10.2311 13.7683C10.6999 14.2371 11.3358 14.5005 11.9988 14.5005Z" fill="#353535"/>
</svg>
