<svg width="27" height="60" viewBox="0 0 27 60" fill="none" xmlns="http://www.w3.org/2000/svg">
<path d="M18.4282 42.2766C21.1652 41.2293 23.5105 39.3643 25.1469 36.9383L25.9738 43.5533C26.3122 46.2606 24.6879 48.829 22.0969 49.6837L6.91753 54.6912C4.46024 55.5019 2.38881 57.1787 1.08353 59.3994L2.10821 51.7144C2.38472 49.6405 3.77333 47.884 5.72735 47.1363L18.4282 42.2766Z" fill="#1A1A1A" stroke="#1A1A1A" stroke-width="0.193548"/>
<path d="M17.332 26.6961C19.7897 25.7305 21.7906 23.8775 22.943 21.5102L23.8079 27.0048C24.2271 29.6679 22.7265 32.2612 20.2088 33.225L8.18272 37.8285C6.00229 38.6631 4.2354 40.3013 3.2352 42.3919L4.16204 35.0631C4.42399 32.9919 5.79554 31.2287 7.7387 30.4653L17.332 26.6961Z" fill="#1A1A1A" stroke="#1A1A1A" stroke-width="0.193548"/>
<path d="M14.2837 13.6408C17.165 12.6141 19.4686 10.413 20.6286 7.59406L21.4335 11.8359C21.9352 14.4798 20.5227 17.1151 18.0432 18.1611L10.7396 21.2421C8.27539 22.2816 6.24029 24.1216 4.95777 26.4564L5.81059 19.9609C6.08965 17.8354 7.53577 16.0454 9.55512 15.3258L14.2837 13.6408Z" fill="#1A1A1A" stroke="#1A1A1A" stroke-width="0.193548"/>
<rect x="9.68285" width="7.74194" height="7.74194" rx="3.87097" fill="#1A1A1A"/>
</svg>
