<svg width="24" height="24" viewBox="0 0 24 24" fill="none" xmlns="http://www.w3.org/2000/svg">
<path d="M19.7141 12.7062C20.1047 12.3156 20.1047 11.6812 19.7141 11.2906L15.7141 7.29062C15.3234 6.9 14.6891 6.9 14.2984 7.29062C13.9078 7.68125 13.9078 8.31562 14.2984 8.70625L16.5922 11H10.0078C9.45469 11 9.00781 11.4469 9.00781 12C9.00781 12.5531 9.45469 13 10.0078 13H16.5922L14.2984 15.2937C13.9078 15.6844 13.9078 16.3187 14.2984 16.7094C14.6891 17.1 15.3234 17.1 15.7141 16.7094L19.7141 12.7094V12.7062ZM9.00781 7C9.56094 7 10.0078 6.55312 10.0078 6C10.0078 5.44687 9.56094 5 9.00781 5H7.00781C5.35156 5 4.00781 6.34375 4.00781 8V16C4.00781 17.6562 5.35156 19 7.00781 19H9.00781C9.56094 19 10.0078 18.5531 10.0078 18C10.0078 17.4469 9.56094 17 9.00781 17H7.00781C6.45469 17 6.00781 16.5531 6.00781 16V8C6.00781 7.44687 6.45469 7 7.00781 7H9.00781Z" fill="#353535"/>
</svg>
