<svg width="25" height="25" viewBox="0 0 25 25" fill="none" xmlns="http://www.w3.org/2000/svg">
<path d="M6.64282 5.25C6.64282 4.83437 6.30845 4.5 5.89282 4.5C5.4772 4.5 5.14282 4.83437 5.14282 5.25V6.5V15.4531V17V19.75C5.14282 20.1656 5.4772 20.5 5.89282 20.5C6.30845 20.5 6.64282 20.1656 6.64282 19.75V16.625L9.1522 15.9969C10.4366 15.675 11.7959 15.825 12.9803 16.4156C14.3616 17.1062 15.9647 17.1906 17.4084 16.6469L18.4928 16.2406C18.8834 16.0938 19.1428 15.7219 19.1428 15.3031V6.5625C19.1428 5.84375 18.3866 5.375 17.7428 5.69687L17.4428 5.84687C15.9959 6.57188 14.2928 6.57188 12.8459 5.84687C11.7491 5.29687 10.4897 5.15938 9.29907 5.45625L6.64282 6.125V5.25ZM6.64282 7.67188L9.66157 6.91563C10.5053 6.70625 11.3959 6.80312 12.1741 7.19062C13.8897 8.04688 15.8834 8.11875 17.6428 7.40313V14.9594L16.8803 15.2437C15.8272 15.6375 14.6553 15.5781 13.6491 15.075C12.1428 14.3219 10.4209 14.1344 8.78657 14.5406L6.64282 15.0781V7.67188Z" fill="#EB003D"/>
</svg>
