<svg width="24" height="24" viewBox="0 0 24 24" fill="none" xmlns="http://www.w3.org/2000/svg">
<path d="M6.7 19.3L3.95 18.7C3.7 18.65 3.5 18.5207 3.35 18.312C3.2 18.104 3.14167 17.875 3.175 17.625L3.45 14.8L1.575 12.65C1.40833 12.4667 1.325 12.25 1.325 12C1.325 11.75 1.40833 11.5333 1.575 11.35L3.45 9.19999L3.175 6.37499C3.14167 6.12499 3.2 5.89599 3.35 5.68799C3.5 5.47933 3.7 5.34999 3.95 5.29999L6.7 4.69999L8.15 2.24999C8.28333 2.03333 8.46667 1.89166 8.7 1.82499C8.93333 1.75833 9.16667 1.76666 9.4 1.84999L12 2.94999L14.6 1.84999C14.8333 1.76666 15.0667 1.75833 15.3 1.82499C15.5333 1.89166 15.7167 2.03333 15.85 2.24999L17.3 4.69999L20.05 5.29999C20.3 5.34999 20.5 5.47933 20.65 5.68799C20.8 5.89599 20.8583 6.12499 20.825 6.37499L20.55 9.19999L22.425 11.35C22.5917 11.5333 22.675 11.75 22.675 12C22.675 12.25 22.5917 12.4667 22.425 12.65L20.55 14.8L20.825 17.625C20.8583 17.875 20.8 18.104 20.65 18.312C20.5 18.5207 20.3 18.65 20.05 18.7L17.3 19.3L15.85 21.75C15.7167 21.9667 15.5333 22.1083 15.3 22.175C15.0667 22.2417 14.8333 22.2333 14.6 22.15L12 21.05L9.4 22.15C9.16667 22.2333 8.93333 22.2417 8.7 22.175C8.46667 22.1083 8.28333 21.9667 8.15 21.75L6.7 19.3ZM10.25 14.85C10.4333 15.0333 10.6667 15.125 10.95 15.125C11.2333 15.125 11.4667 15.0333 11.65 14.85L15.9 10.6C16.1 10.4 16.2 10.1623 16.2 9.88699C16.2 9.61233 16.1 9.37499 15.9 9.17499C15.7 8.97499 15.4627 8.87499 15.188 8.87499C14.9127 8.87499 14.675 8.97499 14.475 9.17499L10.95 12.7L9.5 11.275C9.3 11.0917 9.06267 11.004 8.788 11.012C8.51267 11.0207 8.28333 11.1167 8.1 11.3C7.91667 11.4833 7.825 11.7167 7.825 12C7.825 12.2833 7.91667 12.5167 8.1 12.7L10.25 14.85ZM9.45 19.95L12 18.85L14.6 19.95L16 17.55L18.75 16.9L18.5 14.1L20.35 12L18.5 9.84999L18.75 7.04999L16 6.44999L14.55 4.04999L12 5.14999L9.4 4.04999L8 6.44999L5.25 7.04999L5.5 9.84999L3.65 12L5.5 14.1L5.25 16.95L8 17.55L9.45 19.95Z" fill="black"/>
</svg>
